<svg xmlns="http://www.w3.org/2000/svg" xmlns:xlink="http://www.w3.org/1999/xlink" width="64" height="55"><defs><path id="a" d="M1395 3630a3 3 0 0 1 0-6 9 9 0 0 0 4.04-17.03l-.17-.08a8.98 8.98 0 0 0-.56-.25l-.25-.1a8.85 8.85 0 0 0-.52-.17l-.35-.1-.46-.1-.5-.07-.35-.06a9.09 9.09 0 0 0-.88-.04l-.28.01c-.09-.5-.2-1.01-.34-1.5l-.11-.36c-.12-.38-.23-.75-.37-1.12l-.13-.32c-.15-.37-.3-.74-.48-1.1l-.13-.25c-.19-.37-.38-.74-.6-1.1a16.96 16.96 0 0 0-29.72 1.1c-.04.09-.1.17-.13.26-.18.35-.33.72-.48 1.09-.04.1-.1.21-.13.32-.14.37-.25.74-.37 1.12l-.11.35c-.14.5-.25 1-.34 1.51l-.28-.01c-.3 0-.6.02-.88.04l-.36.06-.5.07-.45.1-.35.1c-.18.05-.35.11-.52.18-.09.03-.17.05-.25.09-.2.07-.38.16-.56.25l-.17.08c-.2.1-.4.2-.59.32l-.1.06A8.99 8.99 0 0 0 1361 3624a3 3 0 0 1 0 6 15 15 0 0 1-4.39-29.34A22.95 22.95 0 0 1 1378 3586c9.75 0 18.05 6.09 21.39 14.66A15 15 0 0 1 1395 3630zm-28.23-7v-.01l.01-.01 8.99-9.99v.01a2.98 2.98 0 0 1 4.45 0h.01l8.99 9.98.01.01a2.96 2.96 0 0 1 .77 2v.01a3 3 0 0 1-3 3h-.22l-.1-.02h-.03l-.14-.02a3 3 0 0 1-1.74-.95l-3.77-4.2V3638a3 3 0 0 1-6 0v-15.18l-3.77 4.19a3 3 0 0 1-1.87.97h-.04l-.1.01h-.12l-.1.01a3 3 0 0 1-2.23-5z"/></defs><use fill="#fff" xlink:href="#a" transform="translate(-1346 -3586)"/></svg>