<svg xmlns="http://www.w3.org/2000/svg" xmlns:xlink="http://www.w3.org/1999/xlink" width="16" height="21"><defs><path id="a" d="M960 4907s-8-8.78-8-13.13a7.94 7.94 0 0 1 8-7.87c4.42 0 8 3.53 8 7.87 0 4.35-8 13.13-8 13.13zm0-18.38a5.3 5.3 0 0 0-5.33 5.25 5.3 5.3 0 0 0 5.33 5.25 5.3 5.3 0 0 0 5.33-5.25 5.3 5.3 0 0 0-5.33-5.25zm0 7.88a2.65 2.65 0 0 1-2.67-2.63c0-1.44 1.2-2.62 2.67-2.62a2.65 2.65 0 0 1 2.67 2.62c0 1.45-1.2 2.63-2.67 2.63z"/></defs><g transform="translate(-952 -4886)"><use fill="#fff" xlink:href="#a"/><use fill="#323232" xlink:href="#a"/></g></svg>