<svg xmlns="http://www.w3.org/2000/svg" xmlns:xlink="http://www.w3.org/1999/xlink" width="73" height="63"><defs><path id="a" d="M977.1 3582.04c-5.4 0-9.72 1.93-13.54 5.74l-2.18 2.73-2.17-2.56c-3.82-3.81-8.15-5.91-13.55-5.91a20.1 20.1 0 0 0-14.29 5.9 19.99 19.99 0 0 0-5.92 14.25c0 5.38 2.1 10.43 5.92 14.24l26.82 26.97a4.5 4.5 0 0 0 6.38 0l26.83-26.97a19.99 19.99 0 0 0 5.91-14.24c0-5.38-2.1-10.44-5.92-14.25a20.1 20.1 0 0 0-14.29-5.9z"/></defs><use fill="#fff" xlink:href="#a" transform="translate(-925 -3582)"/></svg>