<svg xmlns="http://www.w3.org/2000/svg" xmlns:xlink="http://www.w3.org/1999/xlink" width="21" height="20"><defs><path id="a" d="M985.45 2818h-15.27a2.52 2.52 0 0 1-2.54-2.5v-15c0-1.38 1.14-2.5 2.54-2.5h15.27c1.41 0 2.55 1.12 2.55 2.5v15c0 1.38-1.14 2.5-2.55 2.5zm-7.63-13.88c-1.59 0-2.95.93-3.58 2.25l-.02.05-.1.25-.05.12-.07.27-.04.12-.05.29-.01.12a3.91 3.91 0 0 0 3.92 4.29 3.91 3.91 0 0 0 3.92-4.3l-.02-.11-.05-.29-.03-.12a3.79 3.79 0 0 0-.08-.27c0-.04-.03-.08-.04-.12a3.72 3.72 0 0 0-.1-.25l-.02-.05a3.95 3.95 0 0 0-3.58-2.25zm7.89-2.87a1 1 0 0 0-1.02-1h-2.04a1 1 0 0 0-1.01 1v2a1 1 0 0 0 1.01 1h2.04a1 1 0 0 0 1.02-1zm0 5.12h-1.88a6.18 6.18 0 0 1-6.01 7.75 6.18 6.18 0 0 1-6.02-7.75h-1.87v8.38a1 1 0 0 0 1.02 1h13.74a1 1 0 0 0 1.02-1z"/></defs><g transform="translate(-967 -2798)"><use fill="#fff" xlink:href="#a"/><use fill="#e4e4e4" xlink:href="#a"/></g></svg>