<svg xmlns="http://www.w3.org/2000/svg" xmlns:xlink="http://www.w3.org/1999/xlink" width="19" height="13"><defs><path id="a" d="M1182.95 4899.83l5.78-5.57c.17.16.27.38.27.63v11.22c0 .24-.1.45-.24.6zm-12.65-5.6a.89.89 0 0 1 .6-.23h17.2c.24 0 .45.09.6.23l-9.2 7.16zm-.06 12.49a.88.88 0 0 1-.24-.6v-11.23c0-.25.1-.47.27-.63l5.78 5.57zm9.26-3.56l2.42-2.33 6.8 5.93a.89.89 0 0 1-.61.24h-17.22a.89.89 0 0 1-.61-.24l6.8-5.93z"/></defs><g transform="translate(-1170 -4894)"><use fill="#fff" xlink:href="#a"/><use fill="#323232" xlink:href="#a"/></g></svg>