<svg xmlns="http://www.w3.org/2000/svg" xmlns:xlink="http://www.w3.org/1999/xlink" width="14" height="21"><defs><path id="a" d="M738.6 4886.97l1 2.07c.34.72.1 1.65-.54 2.07l-1.16.77a.58.58 0 0 0-.2.7l2.01 4.2 2.09 4.35c.05.12.16.22.28.27.2.1 1.07-.01 1.89-.07l.23-.02c.82-.06 1.73.49 2.04 1.22l.64 1.54c.3.74.02 1.73-.7 2.1-5.3 2.77-7.3-2.28-7.3-2.28l-2.66-5.53-2.58-5.39s-2.67-4.75 2.91-6.88c.77-.29 1.7.15 2.05.88z"/></defs><g transform="translate(-733 -4886)"><use xlink:href="#a"/><use fill="#323232" xlink:href="#a"/></g></svg>