<svg xmlns="http://www.w3.org/2000/svg" xmlns:xlink="http://www.w3.org/1999/xlink" width="21" height="17"><defs><path id="a" d="M945.85 2799.88a4.33 4.33 0 0 1 3.3 1.28c.7-.06 1.6-.44 2.14-.7.18-.1.35-.2.52-.28a4.1 4.1 0 0 1-1.35 1.92c-.14.1-.28.25-.46.32v.01c.9 0 1.65-.41 2.36-.63v.01a6.67 6.67 0 0 1-1.41 1.6l-.66.5c.02.95 0 1.85-.19 2.64-1.04 4.6-3.8 7.73-8.18 9.07-1.57.49-4.11.68-5.91.24-.9-.21-1.7-.46-2.46-.78a9.9 9.9 0 0 1-1.55-.82c.4 0 .88.12 1.34.05.4-.07.8-.05 1.19-.13.94-.2 1.78-.48 2.5-.9.36-.2.89-.43 1.14-.72a4.16 4.16 0 0 1-3.9-2.84c.41.04 1.6.15 1.87-.08a3.08 3.08 0 0 1-1.37-.54 3.93 3.93 0 0 1-1.96-3.52l.42.2c.28.12.55.18.88.24.14.03.41.11.57.05h-.02c-.21-.24-.55-.4-.76-.66a4.14 4.14 0 0 1-.94-3.72c.1-.4.27-.74.45-1.07l.02.01c.08.17.26.3.37.43a12.4 12.4 0 0 0 8.22 3.83c-.18-.53-.12-1.4.03-1.92a4.07 4.07 0 0 1 3.3-3.03l.5-.06z"/></defs><g transform="translate(-932 -2799)"><use fill="#fff" xlink:href="#a"/><use fill="#e4e4e4" xlink:href="#a"/></g></svg>